<?xml version="1.0" encoding="UTF-8"?>
<svg id="Layer_2" data-name="Layer 2" xmlns="http://www.w3.org/2000/svg" viewBox="0 0 1646.67 812.33">
  <defs>
    <style>
      .cls-1 {
        fill: #fff;
      }
    </style>
  </defs>
  <g id="Layer_3" data-name="Layer 3">
    <path class="cls-1" d="M697.98,613.97c-40.61,4.14-78.62,17.88-115.97,33.19-101.06,42.22-195.97,101.46-291.31,155.22-4.75,2.49-9.69,5.01-14.81,6.73-9.54,2.87-19.45,4.05-29.46,2.59-21.28-2.98-38.07-19.06-42.75-39.89-4.93-21.88,1.19-43.46,7.83-63.52,9.02-26.12,20.77-50.76,32.98-75.16,65.67-127.53,145.35-247.31,218.5-369.54,20.48-33.97,40.73-68.44,59.21-103.19,12.94-24.73,25.46-49.24,33.56-74.61,2.07-6.78,2.69-9.97,3.43-14.86.07-.04.14.47.61,1.9,2.24,7.67,10.96,15.8,18.87,16.9,1.46.22,1.95.1,1.87.03-2.96-.42-6.78.64-10.07,1.34-12.65,2.88-38.28,14.19-51.25,19.62-13.36,5.5-30.08,12.04-43.55,17.22-83.74,31.3-169.64,57.25-259.39,64.68-53.44,3.71-110.05,1.44-158.51-23.81-23.75-12.63-44.94-32.46-54.22-58.06-1.71-4.94-3.13-9.99-3.56-15.19,3.73,9.37,9.79,17.62,16.69,24.78,85.41,84.96,292.71-4.72,386.85-46.96,19.66-8.97,41.31-19.41,60.71-28.94,9.75-4.93,23.74-11.87,33.42-16.91,29.99-15.4,64.78-32.7,99.82-26.11,31.47,6.16,51.47,32.38,53.5,63.5,2.48,37.14-14.26,77.39-28.48,110.33-21.57,48.2-47.36,94-73.82,139.3-62.26,105.66-130.75,207.03-195.74,309.91-22.9,37.05-46.45,73.8-64.43,113.19-2.87,6.6-5.28,12.75-6.96,19.16-.22.74-.24.95-.43.04-.16-.87-.38-1.71-.62-2.58-2.63-9.89-13.83-19.67-24.35-19.03,0,0-.32.05-.32.05-.08.01-.2.05-.24.06-.03.01-.06.02-.09.05-.03.02-.06.05-.02.05.05.01.05.07.21.06,0,0,.19.02.19.02.16-.02,0,.01-.51.12-.75.17-1.49.38-2.21.64,0,0-.19.07-.19.07-.1.05-.2.1-.3.16-.09.05-.03.03.03.01,0,0,.16-.04.16-.04,0,0,.33-.08.33-.08.07,0,.32-.1.5-.16,4.32-1.49,10.36-4.15,14.67-6,98.74-44.06,199.02-87.57,305.51-109.7,40.64-7.92,82.89-13.7,124.06-6.59h0Z"/>
    <path class="cls-1" d="M1646.5,335.12c2.46,86.07-20.83,177.34-71.95,247.49-99.63,139.17-292.71,109.6-409.47,8.98-115.78-97.92-145.23-256.12-46.42-377.54,23.4-28.52,52.23-53.82,88.02-65.95,28.95-9.71,60.08-8.41,86.75,7.32,12.27,7.31,22.9,17.14,31.42,28.53,2.24,2.84,4.7,6.69,6.7,9.72,3.64,6.01,7.04,12.45,9.66,18.91,30.08,71.45,10.51,154.77-31.45,216.9-12.89,19.4-28.42,37.07-45.26,53.14,0,0-1.33,1.19-1.33,1.19,0,0-10.73,9.44-10.73,9.44-9.07,7.53-18.7,14.67-28.41,21.31-5.57,3.5-12.31,7.96-18.02,11.14-56.42,32.68-122.14,48.5-187.2,46.59-27.61-.63-55.41-4.63-82.24-11.39-67.34-16.85-113.77-73.29-135.64-136.74-20.05-58.07-23.03-136.77,30.45-179.19,47.41-35.15,107.55-12.66,135.7,34.55,54.72,91.68,46.92,256.63,4.6,352.24-22.03,49.11-56.62,90.94-114.48,92.76-74.23,1.87-133.94-70.31-150.33-137.31-18.59-75.05-3.28-164.03,40.02-228.02,16.97-24.57,39.14-45.97,66.65-58.02,1.43-.6,6.85-2.65,8.46-3.29-13.88,7.94-26.07,18.07-36.52,30.06-56.47,65.31-67.98,187.45-30.33,263.82,7.46,14.8,17.35,28.46,28.81,40.4,10.91,11.12,23.28,20.8,37.53,26.94,5.42,2.12,10.97,4.26,16.73,5.1,16.1,2.62,31.53-1.69,42.8-12.59,12.46-13.03,19.73-28.17,26.43-46.13,22.91-67.93,23.7-145.95,9.56-215.75-4.86-21.45-10.81-41.43-21.74-59.51-2.46-3.87-5.25-8.1-8.95-10.71-1-.7-1.9-1.17-2.57-1.43-.68-.26-1.12-.31-1.22-.25-.1.06.16.21.71.26.88.21,2.94-.41,3.6-.77.24-.09.14.05-.18.58-2.44,4.14-3.54,7.83-4.59,13.58-2.44,16.57.05,32.47,4.92,49.55,5.32,17.53,13.59,34.77,24.28,49.43,13.13,18.01,31.47,32.1,53.56,35.9,4.67,1,10.97,2.27,15.68,3.03,39.86,6.53,81.57,4.45,120.45-6.83,25.47-7.59,50.04-18.76,71.81-33.99,8.58-5.82,17.14-12.86,24.76-19.88,1.68-1.63,3.64-3.56,5.21-5.06,3.48-3.19,6.75-7.24,10.06-10.66,33.98-38.79,58.47-97.85,38.24-146.67-.16-.54-.37-.73-.54-1.06-.3-.46-.47-.94-.75-1.42,0,0-.37-.56-.37-.56-.44-.72-.86-1.48-1.38-2.13-.39-.55-.81-1.21-1.24-1.65-.41-.56-.91-1.05-1.33-1.58-.29-.1-.52-.58-.7-.61-.08-.05-.14-.15-.19-.23-.06,0-.11-.03-.15-.09-.02-.02-.03-.07-.05-.09-.02,0-.04,0-.06,0-.03-.01-.05-.06-.07-.12-.08.04-.11-.06-.14-.11-.03,0-.06,0-.09,0-.13-.19-.6-.16-1.25-.32-2.35-.14-4.89.42-7.22,1.03-7.35,2.33-13.25,5.54-20.16,10.29-12.54,8.56-23.75,20.8-33.46,32.56-56.89,70.39-47.3,161.12,7.2,230.29,34.45,43.69,81.41,77.22,133.61,96.39,61.64,23.01,134.4,23.58,189.37-15.61,77.43-55.64,121.36-163.87,134.42-256.12h0Z"/>
    <path class="cls-1" d="M280.32,409.32c41.49-71.96,130.5-111.2,211.56-89.73,28.18,7.71,54.53,22.23,73.05,45.49-22.25,13.79-48.37,24.59-72.24,33.28-60.23,21.41-151.4,36.64-212.37,10.96h0Z"/>
  </g>
</svg>