<?xml version="1.0" encoding="UTF-8"?>
<svg id="Layer_2" data-name="Layer 2" xmlns="http://www.w3.org/2000/svg" viewBox="0 0 1729.5 811.93">
  <defs>
    <style>
      .cls-1 {
        fill: none;
        stroke: #fff;
        stroke-linecap: round;
        stroke-linejoin: round;
        stroke-width: 83px;
      }
    </style>
  </defs>
  <g id="Layer_3" data-name="Layer 3">
    <path class="cls-1" d="M739.48,610.61c-142.31-6.78-413.56,154.87-434.58,159.04C149.92,800.35,882.78-90.75,566.68,58.33,78.66,288.5,41.5,92.21,41.5,92.21"/>
    <path class="cls-1" d="M1688,331.76c-4.71,90.95-40.42,197.56-109.82,262.07-100.34,93.13-259.77,50.96-351.11-35.96-100.64-93.91-114.58-229.56-24.11-326.96,38.77-42.74,100.26-71.12,132.41-9.87,31.09,65.92,3.59,147.03-43.17,200.75-50.68,59.16-127.98,93.13-205.13,97.08-30.75,1.65-60.66-.79-90.16-7.53-54.61-10.61-89.51-53.86-108.45-103.52-13.15-34.82-19.62-81.72-1.22-114.28,20.2-35.53,60.5-29.31,82.73,3.79,55.34,81.88,49.82,298.86-21.89,370.93-23.74,24.11-59.34,29.17-89.79,15.96-37.83-14.93-71.2-55.66-85.84-95.76-36.91-100.06-.74-252.95,91.05-293.96"/>
    <path class="cls-1" d="M321.82,405.96c67.76-21.65,158.12-66.83,284.61-44.24"/>
  </g>
</svg>