<svg xmlns="http://www.w3.org/2000/svg" width="250" height="250" viewBox="0 0 250 250" fill="none">
<rect width="250" height="250" fill="#FEFFFE"/>
<path d="M 135.37,35.66 L 134.38,35.92 C 133.42,34.21 132.07,33.66 129.22,34.21 C 127.12,34.66 126.12,36.08 125.16,37.72 C 123.81,39.67 123.75,42.01 125.23,43.72 L 125.81,42.91 C 124.72,41.14 125.23,39.73 126.45,38.05 C 125.74,39.73 125.55,41.46 126.19,43.72 L 127.73,47.99 L 126.9,48.92 C 124.46,49.18 122.15,50.31 121.25,52.71 L 122.79,51.72 L 121.25,54.32 L 114.78,65.12 L 114.01,65.45 L 114.59,66.32 L 110.93,87.22 C 110.74,88.63 111.64,89.24 112.73,88.92 L 112.92,86.06 L 113.75,87.41 L 114.01,86.45 L 113.43,85.74 L 114.2,83.14 L 115.03,85.74 L 115.61,85.22 L 116.12,75.32 L 117.85,67.42 L 121.12,62.63 L 118.78,70.81 L 119.03,80.21 L 120.25,85.09 L 118.04,103.98 L 107.92,116.91 L 107.34,117.3 L 108.11,118.04 L 107.21,119.52 C 108.11,121.53 110.93,123.93 113.05,125.28 C 100.13,129.16 91.42,137.06 80.21,147.35 C 70.91,156.21 61.74,164.81 53.41,170.01 L 52.83,166.32 L 51.93,169.05 L 50.14,168.53 L 50.72,170.01 L 48.76,169.82 L 46.63,169.05 L 47.92,171.06 C 42.26,175.85 36.21,179.29 28.21,179.29 C 23.72,179.29 20.06,178.9 14.72,177.55 C 19.08,179.95 23.15,180.21 28.08,180.21 C 21.67,181.95 17.05,183.43 9.82,183.75 L 10.14,184.52 C 22.96,185.17 35.08,183.36 47.21,179.62 L 48.43,181.1 L 47.41,183.11 L 49.75,181.1 L 51.64,181.75 L 53.34,184.21 L 53.09,181.62 L 55.71,180.62 L 59.72,183.62 L 57.76,180.43 L 58.98,178.95 L 59.62,176.02 L 63.02,175.63 L 62.7,174.73 L 60.14,175.12 L 60.21,173.64 C 76.89,165.61 88.82,155.19 105.24,143.6 C 117.72,134.74 130.26,128.84 144.02,129.45 C 157.71,130.06 169.71,141.72 181.29,154.22 C 188.97,162.69 194.89,168.08 205.14,172.61 C 214.04,176.74 220.32,180.43 229.22,180.43 C 232.52,180.43 236.12,180.24 238.53,178.89 L 237.82,178.28 C 232.29,178.28 225.06,176.02 220.06,174.08 C 224.13,175.31 228.66,176.02 235.26,175.63 L 234.74,174.92 C 226.22,174.53 216.16,172.06 212.22,169.14 C 204.15,163.24 196.02,158.71 190.36,153.45 C 178.23,141.14 163.31,125.02 143.25,121.14 L 143.06,119.66 C 146.01,118.95 150.02,117.66 151.75,116.18 L 151.36,116.79 L 151.62,116.66 L 150.91,116.91 L 151.68,116.11 L 150.66,116.53 L 150.72,116.18 L 150.14,116.05 L 149.44,117.04 L 142.93,118.92 L 137.72,100.1 L 139.13,99.17 L 132.03,85.22 L 132.74,69.14 L 133.73,71.61 C 136.23,74.73 139.76,77.98 143.25,80.45 L 144.54,81.44 L 144.28,83.71 L 145.56,84.48 C 146.62,83.13 146.24,81.05 144.92,79.95 C 140.85,77.03 137.12,73.34 134.24,69.14 L 130.45,53.71 L 130.13,48.25 L 131.93,48.06 L 133.35,48.45 C 135.41,45.19 135.73,40.12 134.44,36.24 L 136.11,35.72 L 135.37,35.66 Z M 133.73,37.4 C 134.63,40.26 134.69,43.82 132.99,46.75 L 132.03,47.2 L 127.73,45.12 L 133.73,37.4 Z M 130.07,38.95 L 127.82,43.66 L 128.14,41.66 L 130.07,38.95 Z M 129.11,47.01 L 130.52,47.4 L 130.26,48.73 L 129.11,47.01 Z M 129.23,50.83 L 129.81,52.71 L 120.74,66.84 L 121.96,60.75 L 127.09,52.71 L 129.23,50.83 Z M 129.81,54.9 L 130.71,61.13 L 121.06,74.93 L 122.15,69.4 L 129.81,54.9 Z M 129.81,61.74 L 130.58,66.52 L 122.22,78.86 L 121.77,76.71 L 129.81,61.74 Z M 130.84,67.8 L 130.9,70.06 L 124.56,80.14 L 123.82,79.63 L 130.84,67.8 Z M 131.16,71.61 L 131.35,74.01 L 126.19,82.08 L 125.74,80.92 L 131.16,71.61 Z M 129.03,83.01 L 136.75,100.1 L 135.66,100.87 L 127.34,86.26 L 129.03,83.01 Z M 126.06,88.92 L 128.14,91.51 L 122.91,103.05 L 126.06,88.92 Z M 125.16,90.08 L 122.47,103.44 L 122.02,103.63 L 125.16,90.08 Z M 120.87,104.81 L 111.45,118.11 L 110.16,117.3 L 120.16,103.44 L 120.87,104.81 Z M 129.81,119.11 L 120.22,120.95 L 118.04,123.03 L 115.42,121.08 L 115.93,120.21 C 120.06,119.11 125.36,118.79 129.81,119.11 Z M 136.94,103.12 L 141.43,120.34 C 137.97,119.66 136.04,110.19 136.94,103.12 Z M 142.99,125.8 C 156.75,127.75 168.75,135.19 177.78,144.12 C 172.91,139.66 161.83,132.72 152.34,129.45 C 136.3,124.63 118.43,127.23 101.96,137.71 C 91.36,144.25 88.64,153.05 70.14,166.19 C 79.86,158.97 87.96,147.15 96.16,137.71 C 105.16,129.25 124.14,123.16 142.99,125.8 Z M 190.04,157.21 C 195.01,161.41 199.14,163.81 204.34,167.31 C 198.75,164.81 194.26,161.72 190.04,157.21 Z M 236.41,176.74 C 237.95,175.05 239.3,174.34 241.36,174.34 C 243.92,174.34 245.04,175.05 244.66,175.95 C 243.92,177.04 240.49,177.49 236.41,176.74 Z" fill="black"/>
<path d="M 182.78,118.72 C 181.37,119.33 180.02,120.14 178.87,122.41 L 179.25,125.33 C 180.22,126.59 181.31,127.17 182.85,127.17 L 184.13,126.72 L 184.65,127.17 C 186.35,126.14 187.05,124.85 187.24,122.84 L 186.15,120.34 L 185.32,120.15 L 184.84,119.05 L 183.62,119.24 L 182.78,118.72 Z" fill="black"/>
<path d="M 167.32,127.62 L 168.15,129.03 L 166.61,128.71 L 167.76,130.06 L 166.41,130.99 C 166.22,133.46 168.28,136.12 170.75,136.67 L 173.06,135.8 L 173.64,134.06 L 174.34,133.54 L 174.02,132.35 L 174.92,131.12 L 173.96,128.65 L 172.48,129.03 L 171.13,128.26 L 167.32,127.62 Z" fill="black"/>
<path d="M 181.82,116.12 L 182.21,116.73 L 182.66,116.34 L 181.82,116.12 Z" fill="black"/>
<path d="M 189.72,118.65 L 188.76,119.46 L 189.46,119.72 L 189.72,118.65 Z" fill="black"/>
<path d="M 192.25,128.65 L 194.75,128.84 V 129.45 L 193.66,129.64 L 192.25,128.65 Z" fill="black"/>
<path d="M 182.01,134.94 L 183.23,135.74 L 183.62,135.26 L 182.01,134.94 Z" fill="black"/>
<path d="M 164.05,124.09 L 164.53,124.64 L 164.92,124.25 L 164.05,124.09 Z" fill="black"/>
<path d="M 190.36,141.53 L 190.04,142.59 L 191.13,143.04 L 193.19,142.59 L 193.06,141.53 H 190.36 Z" fill="black"/>
<path d="M 151.75,140.95 C 150.14,141.72 150.21,144.05 151.81,144.73 L 152.96,144.99 C 151.49,147.12 151.17,148.79 152.26,150.61 C 153.8,152.22 154.63,153.83 154.63,157.02 C 154.63,158.9 153.16,159.96 153.61,162.16 C 154.12,164.17 156.37,163.85 156.37,161.71 C 156.37,159.15 155.21,158.25 155.21,155.62 C 155.21,153.12 156.05,151.11 157.75,150.43 C 159.81,149.11 158.84,145.42 156.24,144.93 L 154.76,145.26 L 153.16,144.33 C 152.45,143.94 152.26,142.06 151.75,140.95 Z" fill="black"/>
<path d="M 142.61,148.79 L 142.87,150.73 L 144.15,148.2 L 142.61,148.79 Z" fill="black"/>
<path d="M 167.96,165.02 L 167.44,166.15 L 168.09,168.03 L 168.99,167.71 L 168.67,165.21 L 167.96,165.02 Z" fill="black"/>
<path d="M 162.55,173.06 L 162.81,173.51 L 163.19,173.12 L 162.55,173.06 Z" fill="black"/>
<path d="M 143.96,176.65 L 144.34,177.55 L 144.92,176.26 L 143.96,176.65 Z" fill="black"/>
<path d="M 191.32,169.24 C 201.17,174.73 211.23,181.49 222.81,183.5 C 211.86,181.75 201.17,174.53 191.32,169.24 Z" fill="black" fill-opacity="0.75"/>
<path d="M 167.96,91.64 C 166.74,93.06 167.64,94.73 169.24,94.21 C 170.66,93.76 170.85,92.15 170.08,91.12 C 169.31,90.67 168.54,90.86 167.96,91.64 Z" fill="black"/>
<path d="M 163.16,97.93 C 162.07,98.32 162.39,100.52 163.74,100.13 C 164.96,99.74 164.64,97.41 163.16,97.93 Z" fill="black"/>
<path d="M 160.5,102.33 C 159.41,102.72 159.73,104.92 161.08,104.53 C 162.3,104.08 161.91,101.88 160.5,102.33 Z" fill="black"/>
<path d="M 153.22,100.13 C 150.85,100.65 150.46,103.18 152.16,104.66 C 153.77,106.01 156.3,105.05 157.13,103.11 L 156.62,100.65 C 155.66,99.84 154.76,99.74 153.22,100.13 Z" fill="black"/>
<path d="M 177.52,88.05 L 177.13,88.92 L 177.84,89.18 L 178.55,88.41 L 177.52,88.05 Z" fill="black"/>
<path d="M 184.91,82.15 L 185.61,82.53 L 185.87,81.6 L 184.91,82.15 Z" fill="black"/>
<path d="M 184.91,86.61 L 185.13,87.16 L 185.87,86.61 H 184.91 Z" fill="black"/>
<path d="M 49.11,200.01 C 46.16,200.94 46.41,204.31 47.57,205.85 L 50.65,205.92 C 52.45,204.92 53.09,202.91 52.32,200.78 C 51.55,199.75 50.33,199.56 49.11,200.01 Z" fill="black"/>
<path d="M 44.75,211.25 C 43.15,212.02 43.34,214.55 45.33,214.36 C 47.15,214.16 47.63,212.62 47.15,211.43 C 46.48,210.72 45.65,210.85 44.75,211.25 Z" fill="black"/>
<path d="M 50.01,214.48 L 49.75,214.93 L 50.27,215 L 50.01,214.48 Z" fill="black"/>
<path d="M 18.69,203.06 C 17.73,204.25 17.73,206.05 19.59,206.31 C 21.65,206.56 21.71,205.15 21.13,203.31 C 20.36,202.63 19.46,202.63 18.69,203.06 Z" fill="black"/>
<path d="M 5.54,207.72 L 5,208.75 L 6.35,208.94 L 7.12,207.72 H 5.54 Z" fill="black"/>
<path d="M 11.62,211.53 L 11.14,212.76 L 12.29,212.95 L 12.93,211.53 H 11.62 Z" fill="black"/>
<path d="M 78.31,184.01 C 77.41,185.1 78.18,186.84 79.66,186.71 C 81.36,186.58 81.42,185.16 80.72,183.81 C 79.95,183.11 78.92,183.24 78.31,184.01 Z" fill="black"/>
<path d="M 88.34,187.29 L 88.02,188.32 L 89.11,188.64 L 89.62,187.55 L 88.34,187.29 Z" fill="black"/>
<path d="M 95.83,190.02 C 94.35,191.24 94.87,193.51 96.99,193.83 C 98.92,194.15 99.62,192.41 99.11,190.74 C 98.21,189.64 97.06,189.44 95.83,190.02 Z" fill="black"/>
<path d="M 69.41,192.28 L 70.05,192.67 L 70.63,192.28 L 69.41,192.28 Z" fill="black"/>
<path d="M 54.53,190.74 L 54.98,191.76 L 55.81,191.24 L 55.33,190.22 L 54.53,190.74 Z" fill="black"/>
<path d="M 42.19,188.19 L 42.06,189.44 L 43.35,189.51 L 43.73,188.19 H 42.19 Z" fill="black"/>
<path d="M 30.81,195.61 L 27.76,195.8 L 30.55,195.61 H 30.81 Z" fill="black" fill-opacity="0.25"/>
<path d="M 31.9,188.64 L 31.64,189.19 L 32.16,189.06 L 31.9,188.64 Z" fill="black" fill-opacity="0.25"/>
<path d="M 53.76,191.24 L 53.44,191.69 L 53.95,191.63 L 53.76,191.24 Z" fill="black" fill-opacity="0.25"/>
<path d="M 38.92,147.54 C 36.86,149.35 36.86,152.21 38.86,153.76 C 41.23,155.43 43.67,154.44 44.63,152.24 C 45.53,149.71 43.99,146.72 41.23,146.4 L 38.92,147.54 Z" fill="black"/>
<path d="M 33.65,157.92 L 32.62,158.73 L 33.01,159.53 L 34.71,159.47 L 34.32,157.73 L 33.65,157.92 Z" fill="black"/>
<path d="M 24.75,142.91 L 25.45,143.94 L 25.84,143.17 L 24.75,142.91 Z" fill="black"/>
<path d="M 33.91,146.7 L 34.23,147.41 L 34.81,147.09 L 33.91,146.7 Z" fill="black"/>
<path d="M 51.93,160.25 L 52.25,161.54 L 53.02,160.73 L 52.51,159.8 L 51.93,160.25 Z" fill="black"/>
</svg>