<?xml version="1.0" encoding="UTF-8"?>
<svg id="Layer_2" data-name="Layer 2" xmlns="http://www.w3.org/2000/svg" viewBox="0 0 1709.5 795.95">
  <defs>
    <style>
      .cls-1 {
        stroke-width: 63px;
      }

      .cls-1, .cls-2 {
        fill: none;
        stroke: #fff;
        stroke-linecap: round;
        stroke-linejoin: round;
      }

      .cls-2 {
        stroke-width: 20px;
      }
    </style>
  </defs>
  <path class="cls-1" d="M31.5,75.79c31.04,86.8,169.63,81.53,257.05,63.57,69.75-13.7,137.04-39.47,203.17-67.01,32.87-12.15,113.13-53.02,137.88-37.28,19.24,14.52-5.17,67.94-13.72,89.04-55.75,122.32-131.62,236.68-201.56,351.27-42.89,70.16-93.03,150.69-126.85,222.37-31.36,70.29-21.11,81.68,51.82,49.84,94.8-41.12,209.7-103.83,301.6-124.8,13.38-3.44,27.54-7.47,39.48-13.23,23.38-11.18,35.8-27.45,43.48-53.07,9.6-32.67,14.09-73.86,25.91-108.8,6.66-21.02,15.01-42.05,24.47-61.71,13.68-30.14,40.21-68.81,54.45-84.03,1.89-2.13,3.7-4.09,5.4-5.52.67-.53.99-.61.95-.22-7.12,13.56-16.89,26.28-26.27,43.07-32.74,56.37-62.17,127.6-52.17,195.84,8.88,64.21,57.22,136.97,127.37,134.85,42.47-1.72,77.01-34.64,93.79-73.46,38.57-92.49,7-218.58-21.77-310.8-14.38-44.27-24.61-68.66-59.53-23.62-43.73,61.79-8.6,147.05,42.34,195.95,31.99,31.5,74.46,54.79,118.89,59.94,165.72,17.89,344.48-166.27,244.94-324.18-15.69-23.12-43.08-40-71.12-29.22-92.69,39.86-139.92,224.49-42.38,344.85,14.56,18.18,31.76,34.81,49.99,49.2,97.01,77.22,237.2,104.54,334.59,12.37,68.08-66.51,93.54-169.13,104.3-255.59"/>
  <path class="cls-2" d="M311.83,389.55c43.67-23.62,250.37-84.29,329.83-39.98"/>
</svg>