<?xml version="1.0" encoding="UTF-8"?>
<svg id="Layer_2" xmlns="http://www.w3.org/2000/svg" version="1.1" viewBox="0 0 1646.67 812.33">
  <!-- Generator: Adobe Illustrator 30.2.1, SVG Export Plug-In . SVG Version: 2.1.1 Build 1)  -->
  <defs>
    <style>
      .st0 {
        fill: #fff;
      }

      .st1 {
        fill: none;
        stroke: #fff;
        stroke-linecap: round;
        stroke-linejoin: round;
        stroke-width: 20px;
      }
    </style>
  </defs>
  <path class="st0" d="M3.76,94.21c41.34,91.71,207.19,59.7,284.07,36.29,56.6-16.75,111.82-41.06,166.52-65.35,24.74-10.82,49.61-23.16,75.55-32.49,29.64-10.67,74.08-23.36,96.74,7.72,22.84,32.27.84,82.46-11.67,114.92-6.88,16.12-15.11,33.64-22.65,49.46-68.23,139.12-154.85,268.34-235.21,399.89-23.97,39.01-47.26,77.58-68.37,117.83,0,0-2.76,5.29-2.76,5.29,0,0-1.38,2.65-1.38,2.65l-1.19,2.45c-5.43,11.51-10.72,22.68-13.92,34.44-.29,1.13-.47,2.07-.56,2.48-.12.42-.06.28-.39-1.11-.18-.62-.48-1.75-1.11-3.06-.37-.76-.76-1.49-1.23-2.21-2.26-3.58-6.51-6.89-10.31-7.78-1.89-.47-2.4-.26-2.19-.21.21.08,1.07.11,2.16.01,4.61-.48,8.77-1.51,13.71-2.93,7-2.03,14.45-4.66,21.93-7.49,46.52-17.92,93.15-38.52,139.58-57.82,39.45-16.31,79.39-32.26,120.14-45.13,16.13-5,33.74-9.9,50.24-13.41,21.55-5.05,45.66-9.97,61.6-25.95,10.32-10.5,15.36-24.21,19.27-38.87,7.09-26.35,11.28-53.32,18.43-80.13,2.07-7.91,5.06-17.15,7.61-24.91,12.99-38.91,30.5-76.93,53.41-110.91,8.47-12.7,17.51-25.38,27.89-36.78,1.6-1.67,3.17-3.44,5.12-4.99.44-.34.68-.52,1.3-.93.75-.37,1.03-.92,4.3-1.85,5.89-5.78,21.71,14.47,15.78,13.93,0,0-1.39,4.6-1.39,4.6-7.65,14.69-16.88,27.26-24.59,41.26-3.74,6.79-7.56,13.64-11.07,20.55-24.52,48.14-43.5,102.31-38.12,156.79,5.09,49.8,36.77,109.23,87.47,122.99,23.87,6.21,46.77-.79,64.86-17.91,13.65-12.72,23.93-30.17,29.52-48.25.84-2.97,2.16-6.94,2.82-9.88,14.93-60.47,4.52-123.91-9.87-184.21-6.33-25.89-14.11-51.95-22.3-77.44-1.61-4.97-3.59-11.13-5.35-16.03-2.45-6.83-5.52-15.63-8.82-21.38,0,0-.3-.49-.3-.49,0,0-.14-.25-.14-.25-.04-.06-.07-.08-.11-.13-.12-.15-.27-.42-.25-.3.39.64.94,1.11,1.53,1.64,5.03,4.87,15.32,7.08,22.6,4.44,1.35-.54,1.47-.55,2.31-1-.78.68-2.39,2.24-4.23,4.27-35.24,38.96-11.55,99.06,18.07,134.99,29.29,35.38,72.37,62.47,117.92,65.25,76.86,4.02,155.25-42.06,195.51-106.64,30.19-48.8,34.51-103.14,4.36-153.15-3.87-6.43-13.64-16.45-21.35-14.9-6.99,2.69-14.32,7.7-20.75,13.29-42.79,39.42-57.97,106.73-52.99,163.5,3.65,40.85,18.72,80.52,44.27,112.67,26.5,33.67,61.37,61.44,99.27,81.52,78.24,41.37,171.07,45.92,241.45-13.31,25.7-21.68,45.77-49.51,61.74-78.97,27.71-51.73,43.13-108.52,54.3-166.13.41-2.17,2.51-3.6,4.69-3.19,2,.38,3.37,2.19,3.25,4.17-3.91,64.17-15.19,129.35-42.27,188.35-15.83,34.17-37.43,66.96-65.88,92.07-1.96,1.75-5.48,4.74-7.35,6.34-.97.81-6.48,4.97-7.71,5.96-2.47,2.06-7.88,5.54-10.66,7.51-98.07,65.37-227.18,39.1-318.41-25.81-37.69-26.57-71.49-60.07-94.53-100.47-44.94-79.11-48.76-178.93-12.49-262.17,17.42-39.63,46.55-77.51,86.45-97.48,26.43-13.78,58.11-12.67,83.98.86,17.89,9.2,32.82,23.16,43.94,39.25.56.78.79,1.21,1.15,1.78,0,0,1.01,1.62,1.01,1.62,0,0,3.99,6.51,3.99,6.51,0,0,3.53,6.29,3.53,6.29,15.29,27.84,24.75,59.2,26.68,91.01,6.52,103.16-62.8,197.5-150.38,245.7-60.81,33.75-136.32,48.86-204.08,28.99-69.3-20.53-129.51-73.81-160.12-139.11-25.78-54.16-30.1-120.56,6.84-171.68,3.84-5.28,8.12-10.14,12.6-14.95,16.21-17.39,38.27-30.42,63.15-22.61,30.53,10.25,39.45,42.53,48.15,69.46,25.67,87.7,47.36,179.71,32.79,272.08-3.82,22.05-10.08,44.02-19.55,64.4-18.61,38.97-53.32,72.96-96.78,82.05-19.6,4.16-40.39,2.6-59.34-3.66-67.28-22.92-105.48-97.4-108.89-164.86-3-69.45,26.05-134.95,60.88-193.2,7.89-13.6,17.81-26.51,25.09-39.82,0,0-1.39,4.6-1.39,4.6-5.86-.81,9.77,19.11,15.36,13.46,3.01-.86,3.06-1.27,3.59-1.5.4-.27.43-.29.66-.47.29-.24.08-.07.15-.12-4.97,4.77-9.69,10.35-14.02,15.84-31.82,40.4-54.33,87.24-69.09,136.3-9.23,31.06-13.01,63.57-20.95,95.35-15.09,62.15-53.88,73.11-109.52,88.36-59.68,18.5-115.07,46.76-170.76,75.18-35.46,18.25-71.44,37.26-107.81,54.78-17.21,8.05-34.85,16.46-54.19,20.12-36.38,6.79-60.33-18.57-53.6-55.49,2.87-17.1,9.27-33.36,15.45-48.9.64-1.68,2.03-4.76,2.75-6.38,1.33-3.1,4.12-9.1,5.47-12.17,91.37-194.55,226.6-364.84,319.89-557.79,5.36-12.25,11.19-25.47,15.23-37.7,1.8-5.91,3.83-12.26,4.38-17.81,0,0,.14-1.5.14-1.5.01-.4.03-.79.06-1.13-.01-.5,0-.92.08-.55.73,2.25,3.07,5.49,5.39,6.94,0,0,2.02,1.4,2.02,1.4,2.5,1.46,3.42,1.23,2.89,1.13-.25-.06-.71-.17-1.43-.2-.77-.05-1.66-.07-2.5-.04-3.9.1-9.2.9-14.66,2.12-31.44,7.3-60.92,20.86-91.62,32.1-69.82,26.4-141.93,51.84-216.83,62.95-73.41,11.14-187,14.28-240.82-44.67C7.07,123.52.02,110.62-3.78,96.91c-.6-2.13.65-4.35,2.78-4.94,1.95-.55,3.97.45,4.75,2.25h0Z"/>
  <path class="st1" d="M280.32,409.32s160.33-64.31,284.61-44.24"/>
</svg>